<?xml version="1.0" encoding="UTF-8"?>
<svg width="79px" height="79px" viewBox="0 0 79 79" version="1.1" xmlns="http://www.w3.org/2000/svg" xmlns:xlink="http://www.w3.org/1999/xlink">
    <!-- Generator: Sketch 42 (36781) - http://www.bohemiancoding.com/sketch -->
    <title>versions</title>
    <desc>Created with Sketch.</desc>
    <defs></defs>
    <g id="Page-1" stroke="none" stroke-width="1" fill="none" fill-rule="evenodd">
        <g id="versions" transform="translate(-308.000000, -72.000000)">
            <ellipse id="Combined-Shape-Copy-2" fill="#00499E" cx="347.5" cy="111.5" rx="24.5" ry="24.5"></ellipse>
            <path d="M339,102.691014 C339,102.691014 342.690215,94.4105323 350.205651,100.935912 L351.015699,101.745959 C351.015699,101.745959 352.725798,103.501061 353.44584,103.501061 C354.165882,103.501061 354.255887,103.411056 355.965986,101.700956 C357.676086,99.9908568 357.40607,100.035859 359.881214,97.7857286 C362.356358,95.5355977 365.671521,93.9305344 365.671521,93.9305344 C365.671521,93.9305344 367.291615,92.9104151 370.261788,92.1604015 C373.23196,91.4103879 377.409733,90.6528139 382,91.170344 C382,91.170344 380.132391,92.2504067 377.927263,98.9557966 C375.722135,105.661186 374.507064,107.731307 374.507064,107.731307 C374.507064,107.731307 371.85191,113.356634 365.461538,114.571704 C365.461538,114.571704 368.656724,118.396927 379.997384,117.136854 C379.997384,117.136854 358.081109,131.17767 348.270539,114.84172 C348.048946,114.344261 345.849398,110.02545 345.300366,108.211305 C344.610296,105.931202 344.309139,105.125385 343.290279,104.161069 C340.770133,101.775931 339,102.691014 339,102.691014" id="Fill-1-Copy-7" fill="#75A0D3"></path>
        </g>
    </g>
</svg>