<?xml version="1.0" encoding="utf-8"?>
<!-- Generator: Adobe Illustrator 21.0.2, SVG Export Plug-In . SVG Version: 6.00 Build 0)  -->
<svg version="1.1" id="Layer_1" xmlns="http://www.w3.org/2000/svg" xmlns:xlink="http://www.w3.org/1999/xlink" x="0px" y="0px"
	 viewBox="0 0 275 105" style="enable-background:new 0 0 275 105;" xml:space="preserve">
<style type="text/css">
	.st0{enable-background:new    ;}
	.st1{font-family:'Comfortaa-Light';}
	.st2{font-size:28px;}
	.st3{letter-spacing:2;}
	.st4{fill:#00499E;}
	.st5{fill:#75A0D3;}
</style>
<title>A4 Copy 2</title>
<desc>Created with Sketch.</desc>
<g id="Page-1">
	<g id="A4-Copy-2" transform="translate(-123.000000, -65.000000)">
		<g id="Group-2" transform="translate(153.000000, 94.000000)">
			<g class="st0">
				<path d="M74.5,26.5c1.1,0.6,1.9,1.5,2.5,2.7c0.6,1.1,0.9,2.4,0.9,3.9c0,0.2-0.1,0.4-0.2,0.6c-0.1,0.1-0.3,0.2-0.6,0.2H65.4
					c0.1,1.1,0.3,2.1,0.9,3c0.5,0.9,1.2,1.5,2.1,2c0.9,0.5,1.9,0.7,2.9,0.7c0.7,0,1.5-0.1,2.2-0.4c0.7-0.3,1.3-0.6,1.8-1
					c0.2-0.1,0.4-0.2,0.6-0.2c0.2,0,0.4,0.1,0.5,0.2c0.2,0.2,0.3,0.4,0.3,0.6c0,0.2-0.1,0.4-0.3,0.5c-0.6,0.5-1.4,1-2.3,1.3
					c-1,0.4-1.9,0.5-2.8,0.5c-1.5,0-2.8-0.3-3.9-1c-1.1-0.7-2-1.6-2.7-2.8c-0.7-1.2-1-2.5-1-4c0-1.5,0.3-2.9,0.9-4
					c0.6-1.2,1.5-2.1,2.5-2.8c1.1-0.7,2.3-1,3.7-1C72.2,25.5,73.5,25.9,74.5,26.5z M67.2,28.6c-1,1-1.6,2.2-1.8,3.8h10.9
					c-0.1-1.6-0.7-2.9-1.7-3.8c-1-1-2.2-1.5-3.8-1.5C69.4,27.1,68.2,27.6,67.2,28.6z"/>
				<path d="M94.8,26.3c1.1,0.6,1.9,1.4,2.5,2.5s0.9,2.4,0.9,3.8v7.5c0,0.2-0.1,0.4-0.2,0.6c-0.2,0.2-0.4,0.2-0.6,0.2
					c-0.2,0-0.4-0.1-0.6-0.2c-0.2-0.2-0.2-0.4-0.2-0.6v-7.5c0-1.8-0.5-3.1-1.5-4.1s-2.3-1.4-3.9-1.4c-1,0-1.9,0.2-2.7,0.6
					s-1.5,0.9-1.9,1.6c-0.5,0.7-0.7,1.4-0.7,2.3v8.6c0,0.2-0.1,0.4-0.2,0.6C85.4,40.9,85.2,41,85,41c-0.2,0-0.4-0.1-0.6-0.2
					c-0.2-0.2-0.2-0.4-0.2-0.6V26.5c0-0.3,0.1-0.5,0.2-0.6s0.4-0.2,0.6-0.2c0.3,0,0.5,0.1,0.6,0.2c0.1,0.1,0.2,0.4,0.2,0.6V28
					c0.6-0.8,1.4-1.4,2.3-1.8s1.9-0.7,3-0.7C92.5,25.5,93.7,25.8,94.8,26.3z"/>
			</g>
			<text transform="matrix(1 0 0 1 103.0155 41)" class="st1 st2 st3"> </text>
			<g class="st0">
				<path d="M125.6,27.1c1,1.1,1.5,2.5,1.5,4.5v8c0,0.4-0.1,0.8-0.4,1s-0.6,0.4-1,0.4c-0.4,0-0.8-0.1-1-0.4c-0.3-0.3-0.4-0.6-0.4-1
					v-8c0-1.1-0.3-2-0.9-2.6s-1.3-0.9-2.3-0.9c-1,0-1.8,0.3-2.4,1s-0.9,1.5-0.9,2.6v7.9c0,0.4-0.1,0.8-0.4,1s-0.6,0.4-1,0.4
					c-0.4,0-0.8-0.1-1-0.4s-0.4-0.6-0.4-1v-8c0-1.1-0.3-2-0.9-2.6c-0.6-0.6-1.3-0.9-2.3-0.9c-1,0-1.8,0.3-2.4,1
					c-0.6,0.7-0.9,1.5-0.9,2.6v7.9c0,0.4-0.1,0.8-0.4,1c-0.3,0.3-0.6,0.4-1,0.4c-0.4,0-0.8-0.1-1-0.4s-0.4-0.6-0.4-1V27.1
					c0-0.4,0.1-0.8,0.4-1c0.3-0.3,0.6-0.4,1-0.4c0.4,0,0.7,0.1,1,0.4c0.3,0.3,0.4,0.6,0.4,1c0.5-0.5,1.1-0.9,1.7-1.1
					s1.4-0.4,2.2-0.4c1,0,1.8,0.2,2.6,0.6s1.4,0.9,1.9,1.6c0.6-0.7,1.3-1.2,2.1-1.6c0.8-0.4,1.8-0.6,2.8-0.6
					C123.3,25.5,124.6,26.1,125.6,27.1z"/>
				<path d="M145.2,26.6c1.2,0.7,2.1,1.6,2.8,2.8c0.7,1.2,1,2.5,1,4v6.2c0,0.4-0.1,0.8-0.4,1s-0.6,0.4-1,0.4c-0.4,0-0.8-0.1-1-0.4
					s-0.4-0.6-0.4-1v-1c-0.7,0.8-1.4,1.4-2.4,1.9c-0.9,0.4-1.9,0.7-3,0.7c-1.3,0-2.6-0.3-3.7-1c-1.1-0.7-2-1.6-2.6-2.8
					c-0.6-1.2-0.9-2.5-0.9-4c0-1.5,0.3-2.8,1-4c0.7-1.2,1.6-2.1,2.8-2.8c1.2-0.7,2.5-1,3.9-1S144,25.9,145.2,26.6z M143.8,37.9
					c0.8-0.5,1.3-1.1,1.8-1.9c0.4-0.8,0.6-1.7,0.6-2.7s-0.2-1.9-0.6-2.7c-0.4-0.8-1-1.4-1.8-1.9s-1.6-0.7-2.5-0.7s-1.8,0.2-2.5,0.7
					c-0.8,0.5-1.4,1.1-1.8,1.9c-0.4,0.8-0.7,1.7-0.7,2.7s0.2,1.9,0.7,2.7c0.4,0.8,1,1.4,1.8,1.9c0.8,0.5,1.6,0.7,2.5,0.7
					S143.1,38.4,143.8,37.9z"/>
				<path d="M157.8,40.5c-1.1-0.4-2-0.9-2.6-1.5c-0.2-0.2-0.4-0.5-0.4-0.9c0-0.4,0.2-0.8,0.6-1.1c0.4-0.3,0.7-0.4,1-0.4
					c0.4,0,0.7,0.2,1.1,0.5c0.4,0.4,0.9,0.7,1.6,1c0.7,0.3,1.5,0.4,2.3,0.4c1.1,0,1.9-0.2,2.5-0.5c0.6-0.4,0.9-0.8,0.9-1.4
					c0-0.6-0.3-1.1-0.9-1.4c-0.6-0.4-1.6-0.7-2.9-1c-3.6-0.7-5.4-2.2-5.4-4.4c0-0.9,0.3-1.7,0.8-2.3c0.5-0.6,1.2-1.1,2.1-1.4
					c0.9-0.3,1.8-0.5,2.8-0.5c1.2,0,2.3,0.2,3.3,0.6c1,0.4,1.7,0.9,2.3,1.6c0.2,0.3,0.4,0.6,0.4,0.9c0,0.3-0.2,0.6-0.5,0.9
					c-0.2,0.1-0.5,0.2-0.8,0.2c-0.5,0-0.9-0.2-1.3-0.5c-0.5-0.4-1-0.7-1.5-0.9c-0.5-0.2-1.2-0.3-1.9-0.3c-0.9,0-1.6,0.1-2.1,0.4
					c-0.6,0.3-0.8,0.7-0.8,1.2c0,0.4,0.1,0.7,0.3,0.9s0.5,0.5,1.1,0.7c0.5,0.2,1.3,0.4,2.3,0.6c2,0.4,3.5,1,4.3,1.7
					c0.8,0.7,1.3,1.7,1.3,2.8c0,0.9-0.2,1.6-0.7,2.3c-0.5,0.7-1.2,1.2-2.1,1.7c-0.9,0.4-2,0.6-3.3,0.6S158.9,40.9,157.8,40.5z"/>
				<path d="M175.5,40.5c-1.1-0.4-2-0.9-2.6-1.5c-0.2-0.2-0.4-0.5-0.4-0.9c0-0.4,0.2-0.8,0.6-1.1c0.4-0.3,0.7-0.4,1-0.4
					c0.4,0,0.7,0.2,1.1,0.5c0.4,0.4,0.9,0.7,1.6,1c0.7,0.3,1.5,0.4,2.3,0.4c1.1,0,1.9-0.2,2.5-0.5c0.6-0.4,0.9-0.8,0.9-1.4
					c0-0.6-0.3-1.1-0.9-1.4c-0.6-0.4-1.6-0.7-2.9-1c-3.6-0.7-5.4-2.2-5.4-4.4c0-0.9,0.3-1.7,0.8-2.3c0.5-0.6,1.2-1.1,2.1-1.4
					c0.9-0.3,1.8-0.5,2.8-0.5c1.2,0,2.3,0.2,3.3,0.6c1,0.4,1.7,0.9,2.3,1.6c0.2,0.3,0.4,0.6,0.4,0.9c0,0.3-0.2,0.6-0.5,0.9
					c-0.2,0.1-0.5,0.2-0.8,0.2c-0.5,0-0.9-0.2-1.3-0.5c-0.5-0.4-1-0.7-1.5-0.9c-0.5-0.2-1.2-0.3-1.9-0.3c-0.9,0-1.6,0.1-2.1,0.4
					c-0.6,0.3-0.8,0.7-0.8,1.2c0,0.4,0.1,0.7,0.3,0.9s0.5,0.5,1.1,0.7c0.5,0.2,1.3,0.4,2.3,0.6c2,0.4,3.5,1,4.3,1.7
					c0.8,0.7,1.3,1.7,1.3,2.8c0,0.9-0.2,1.6-0.7,2.3c-0.5,0.7-1.2,1.2-2.1,1.7c-0.9,0.4-2,0.6-3.3,0.6S176.7,40.9,175.5,40.5z"/>
				<path d="M204.7,34c-0.2,0.2-0.6,0.3-0.9,0.3h-10.6c0.2,1.3,0.8,2.4,1.8,3.2c1,0.8,2.2,1.2,3.6,1.2c0.6,0,1.1-0.1,1.8-0.3
					c0.6-0.2,1.1-0.5,1.5-0.8c0.3-0.2,0.6-0.3,0.9-0.3s0.6,0.1,0.8,0.3c0.3,0.3,0.5,0.6,0.5,1c0,0.3-0.1,0.6-0.4,0.8
					c-0.6,0.5-1.4,0.9-2.4,1.2c-0.9,0.3-1.8,0.5-2.7,0.5c-1.5,0-2.9-0.3-4.1-1c-1.2-0.7-2.2-1.6-2.8-2.8c-0.7-1.2-1-2.5-1-4
					s0.3-2.8,1-4c0.6-1.2,1.5-2.1,2.7-2.8c1.1-0.7,2.5-1,3.9-1c1.4,0,2.7,0.3,3.7,1c1,0.6,1.8,1.5,2.4,2.7c0.6,1.1,0.8,2.4,0.8,3.9
					C205,33.5,204.9,33.8,204.7,34z M194.8,29.1c-0.8,0.7-1.4,1.7-1.6,3h9.3c-0.2-1.2-0.6-2.2-1.4-3c-0.8-0.7-1.8-1.1-3-1.1
					C196.7,28,195.6,28.4,194.8,29.1z"/>
			</g>
			<ellipse id="Combined-Shape-Copy-2" class="st4" cx="24.5" cy="24.5" rx="24.5" ry="24.5"/>
			<path id="Fill-1-Copy-7" class="st5" d="M16,15.7c0,0,3.7-8.3,11.2-1.8l0.8,0.8c0,0,1.7,1.8,2.4,1.8c0.7,0,0.8-0.1,2.5-1.8
				c1.7-1.7,1.4-1.7,3.9-3.9s5.8-3.9,5.8-3.9s1.6-1,4.6-1.8s7.1-1.5,11.7-1c0,0-1.9,1.1-4.1,7.8c-2.2,6.7-3.4,8.8-3.4,8.8
				s-2.7,5.6-9,6.8c0,0,3.2,3.8,14.5,2.6c0,0-21.9,14-31.7-2.3c-0.2-0.5-2.4-4.8-3-6.6c-0.7-2.3-1-3.1-2-4.1
				C17.8,14.8,16,15.7,16,15.7"/>
		</g>
	</g>
</g>
</svg>
