<?xml version="1.0" encoding="UTF-8"?>
<svg width="79px" height="79px" viewBox="0 0 79 79" version="1.1" xmlns="http://www.w3.org/2000/svg" xmlns:xlink="http://www.w3.org/1999/xlink">
    <!-- Generator: Sketch 42 (36781) - http://www.bohemiancoding.com/sketch -->
    <title>versions copy</title>
    <desc>Created with Sketch.</desc>
    <defs></defs>
    <g id="Page-1" stroke="none" stroke-width="1" fill="none" fill-rule="evenodd">
        <g id="versions" transform="translate(-191.000000, -72.000000)">
            <ellipse id="Combined-Shape-Copy-3" fill="#000000" cx="230.5" cy="111.5" rx="24.5" ry="24.5"></ellipse>
            <path d="M222,102.691014 C222,102.691014 225.690215,94.4105323 233.205651,100.935912 L234.015699,101.745959 C234.015699,101.745959 235.725798,103.501061 236.44584,103.501061 C237.165882,103.501061 237.255887,103.411056 238.965986,101.700956 C240.676086,99.9908568 240.40607,100.035859 242.881214,97.7857286 C245.356358,95.5355977 248.671521,93.9305344 248.671521,93.9305344 C248.671521,93.9305344 250.291615,92.9104151 253.261788,92.1604015 C256.23196,91.4103879 260.409733,90.6528139 265,91.170344 C265,91.170344 263.132391,92.2504067 260.927263,98.9557966 C258.722135,105.661186 257.507064,107.731307 257.507064,107.731307 C257.507064,107.731307 254.85191,113.356634 248.461538,114.571704 C248.461538,114.571704 251.656724,118.396927 262.997384,117.136854 C262.997384,117.136854 241.081109,131.17767 231.270539,114.84172 C231.048946,114.344261 228.849398,110.02545 228.300366,108.211305 C227.610296,105.931202 227.309139,105.125385 226.290279,104.161069 C223.770133,101.775931 222,102.691014 222,102.691014" id="Fill-1-Copy-8" fill="#616161"></path>
        </g>
    </g>
</svg>