<?xml version="1.0" encoding="UTF-8" standalone="no"?>
<!DOCTYPE svg PUBLIC "-//W3C//DTD SVG 1.1//EN" "http://www.w3.org/Graphics/SVG/1.1/DTD/svg11.dtd">
<svg version="1.1" xmlns="http://www.w3.org/2000/svg" xmlns:xlink="http://www.w3.org/1999/xlink" preserveAspectRatio="xMidYMid meet" viewBox="0 0 151 12" width="151" height="12"><defs><path d="M68.53 0.46L68.62 0.51L68.71 0.57L68.79 0.63L68.86 0.69L68.93 0.77L68.99 0.85L69.04 0.93L69.08 1.02L69.12 1.12L69.14 1.23L69.16 1.33L69.16 1.44L69.16 1.54L69.14 1.65L69.12 1.75L69.08 1.86L69.04 1.95L68.99 2.03L68.93 2.11L68.86 2.19L68.79 2.25L68.71 2.32L68.62 2.37L68.53 2.42L68.32 2.47L68.11 2.49L67.9 2.47L67.69 2.42L67.6 2.37L67.52 2.32L67.44 2.26L67.36 2.19L67.29 2.11L67.23 2.03L67.18 1.95L67.14 1.86L67.11 1.75L67.08 1.65L67.07 1.54L67.06 1.44L67.07 1.33L67.08 1.23L67.11 1.12L67.14 1.02L67.18 0.93L67.23 0.85L67.29 0.77L67.36 0.69L67.44 0.62L67.52 0.56L67.6 0.51L67.69 0.46L67.9 0.4L68.11 0.38L68.33 0.4L68.53 0.46ZM67.96 0.57L67.88 0.59L67.79 0.62L67.71 0.66L67.64 0.7L67.57 0.75L67.51 0.8L67.46 0.87L67.41 0.94L67.36 1.02L67.33 1.09L67.3 1.18L67.28 1.26L67.26 1.35L67.26 1.44L67.26 1.53L67.28 1.61L67.3 1.7L67.33 1.79L67.36 1.86L67.41 1.94L67.45 2L67.51 2.07L67.57 2.13L67.64 2.18L67.71 2.22L67.79 2.26L67.88 2.28L67.96 2.3L68.05 2.31L68.14 2.32L68.23 2.31L68.32 2.3L68.41 2.28L68.49 2.26L68.56 2.23L68.62 2.2L68.69 2.16L68.74 2.12L68.8 2.05L68.85 1.99L68.89 1.91L68.92 1.84L68.96 1.75L68.98 1.67L68.99 1.58L68.99 1.49L68.99 1.39L68.98 1.3L68.96 1.2L68.92 1.11L68.89 1.03L68.85 0.95L68.8 0.87L68.74 0.8L68.68 0.75L68.61 0.7L68.54 0.66L68.46 0.62L68.39 0.59L68.31 0.57L68.22 0.56L68.14 0.55L68.05 0.56L67.96 0.57Z" id="c1LJIhB79t"></path><path d="M40.58 10.62L39.73 8.26L35.81 8.26L34.96 10.62L32.64 10.62L36.76 0L38.85 0L42.91 10.62L40.58 10.62ZM37.67 2.99L37.61 3.19L37.54 3.4L37.23 4.31L36.54 6.23L38.99 6.23L38.3 4.31L38.22 4.07L38.14 3.84L38.06 3.62L37.99 3.4L37.93 3.18L37.87 2.98L37.82 2.81L37.77 2.66L37.72 2.82L37.67 2.99Z" id="a1uWe8g72k"></path><path d="M29.04 10.62C29.04 8.28 29.04 6.98 29.04 6.72C29.04 6.57 29.04 6.39 29.04 6.17C29.04 5.95 29.04 5.72 29.04 5.49C29.04 5.43 29.04 4.91 29.04 4.84C29.04 4.64 29.04 4.48 29.04 4.38C28.96 4.59 28.84 4.85 28.7 5.19C28.56 5.53 28.43 5.84 28.29 6.19C28.14 6.5 27.42 8.06 26.12 10.85C24.82 8.03 24.1 6.46 23.95 6.14C23.8 5.84 23.67 5.52 23.53 5.14C23.38 4.76 23.28 4.54 23.2 4.33C23.2 4.38 23.2 4.79 23.2 4.84C23.2 5.04 23.2 5.26 23.2 5.49C23.2 5.72 23.2 5.95 23.2 6.17C23.2 6.39 23.2 6.57 23.2 6.72C23.2 6.98 23.2 8.28 23.2 10.62L21.12 10.62L21.12 0L23.15 0L25.43 4.84L25.65 5.31L25.86 5.81L26.04 6.26C26.12 6.47 26.17 6.59 26.17 6.61C26.28 6.31 26.45 5.88 26.48 5.8C26.61 5.46 26.75 5.14 26.9 4.8C27.04 4.48 27.76 2.88 29.07 0L31.18 0L31.18 10.62L29.04 10.62Z" id="bkQXshUhr"></path><path d="M86.06 3.38C85.72 2.64 84.95 2.18 84.12 2.22C83.75 2.21 83.38 2.3 83.05 2.47C82.73 2.64 82.46 2.88 82.25 3.17C82.02 3.49 81.86 3.85 81.76 4.23C81.64 4.68 81.58 5.13 81.59 5.59C81.59 6.04 81.64 6.49 81.76 6.92C81.86 7.3 82.03 7.67 82.26 7.99C82.47 8.28 82.75 8.53 83.07 8.7C83.4 8.88 83.77 8.97 84.14 8.96C84.57 8.98 84.99 8.87 85.34 8.64C85.71 8.38 86.02 8.03 86.25 7.64C86.43 7.74 87.88 8.59 88.06 8.7C87.73 9.42 87.2 10.03 86.53 10.47C85.79 10.91 84.94 11.13 84.08 11.1C83.42 11.11 82.76 10.98 82.16 10.71C81.59 10.45 81.08 10.08 80.67 9.61C80.24 9.11 79.91 8.52 79.71 7.89C79.48 7.16 79.36 6.39 79.37 5.62C79.37 4.87 79.49 4.12 79.73 3.4C79.95 2.76 80.29 2.17 80.74 1.67C81.14 1.19 81.63 0.79 82.19 0.51C82.79 0.24 83.46 0.1 84.12 0.11C84.59 0.11 85.05 0.17 85.49 0.28C85.88 0.39 86.25 0.56 86.59 0.77C86.91 0.97 87.19 1.23 87.43 1.52C87.68 1.82 87.9 2.16 88.06 2.52C87.66 2.69 86.46 3.21 86.06 3.38Z" id="b3LCWQwqVm"></path><path d="M94.66 0.15L94.99 0.2L95.31 0.27L95.62 0.37L95.93 0.48L96.21 0.62L96.48 0.77L96.73 0.94L96.97 1.13L97.2 1.34L97.41 1.57L97.62 1.82L97.82 2.09L98 2.37L98.16 2.67L98.3 2.97L98.42 3.28L98.53 3.65L98.62 4.03L98.69 4.41L98.74 4.8L98.77 5.19L98.77 5.57L98.76 5.97L98.73 6.36L98.67 6.74L98.6 7.13L98.5 7.51L98.38 7.88L98.26 8.19L98.12 8.5L97.96 8.79L97.78 9.07L97.59 9.34L97.37 9.6L97.15 9.83L96.92 10.04L96.67 10.23L96.41 10.4L96.14 10.56L95.86 10.69L95.23 10.9L94.58 11.03L93.93 11.07L93.28 11.03L92.64 10.9L92.01 10.69L91.73 10.56L91.46 10.41L91.2 10.24L90.96 10.05L90.73 9.85L90.52 9.62L90.3 9.37L90.1 9.1L89.92 8.82L89.76 8.52L89.62 8.22L89.5 7.91L89.39 7.53L89.3 7.15L89.23 6.77L89.19 6.38L89.16 5.99L89.16 5.6L89.16 5.21L89.19 4.82L89.23 4.44L89.3 4.05L89.39 3.67L89.5 3.3L89.62 2.98L89.76 2.68L89.92 2.38L90.1 2.1L90.3 1.83L90.52 1.58L90.74 1.35L90.98 1.14L91.23 0.95L91.5 0.78L91.78 0.62L92.07 0.49L92.38 0.38L92.7 0.28L93.02 0.2L93.35 0.15L93.68 0.12L94.01 0.11L94.34 0.12L94.66 0.15ZM92.94 2.46L92.5 2.74L92.14 3.12L91.82 3.69L91.59 4.31L91.47 4.95L91.46 5.6L91.48 6.27L91.6 6.91L91.83 7.53L92.16 8.11L92.53 8.49L92.98 8.77L93.48 8.94L94.01 8.99L94.53 8.95L95.02 8.78L95.46 8.5L95.83 8.13L96.15 7.55L96.38 6.94L96.5 6.29L96.52 5.63L96.5 4.97L96.38 4.32L96.14 3.7L95.81 3.12L95.43 2.74L94.99 2.46L94.49 2.29L93.96 2.24L93.43 2.29L92.94 2.46Z" id="aeWzgUHKg"></path><path d="M107.7 10.91L103.75 5.12C103.5 4.74 103.35 4.52 103.33 4.48C103.18 4.25 103.07 4.07 103 3.93C103 4.03 103 4.18 103 4.37C103 4.44 103 4.96 103 5.02C103 5.24 103 5.46 103 5.68C103 5.9 103 6.1 103 6.25C103 6.56 103 8.12 103 10.93L100.86 10.93L100.86 0.28L102.89 0.28L106.68 5.89C106.94 6.28 107.08 6.49 107.11 6.54C107.25 6.77 107.36 6.96 107.44 7.1C107.44 7 107.44 6.85 107.44 6.65C107.44 6.58 107.44 6.08 107.44 6.02C107.44 5.78 107.44 5.55 107.44 5.33C107.44 5.11 107.44 4.92 107.44 4.77C107.44 4.47 107.44 2.98 107.44 0.28L109.58 0.28L109.58 10.91L107.7 10.91Z" id="b7OW2UFBii"></path><path d="M119.25 10.13C118.86 10.45 118.41 10.69 117.93 10.83C117.31 11 116.67 11.08 116.03 11.07C115.18 11.08 114.35 10.9 113.58 10.55C112.88 10.25 112.28 9.75 111.85 9.13C112.01 9 113.25 7.9 113.4 7.77C113.75 8.17 114.18 8.49 114.67 8.7C115.14 8.89 115.65 8.99 116.15 8.98C116.64 9.02 117.13 8.92 117.57 8.71C117.87 8.52 118.05 8.18 118.03 7.83C118.03 7.67 118 7.52 117.94 7.38C117.86 7.23 117.74 7.11 117.59 7.03C117.37 6.89 117.12 6.78 116.86 6.71C116.55 6.61 116.13 6.5 115.64 6.39C115.17 6.28 114.72 6.15 114.28 5.99C113.89 5.86 113.53 5.66 113.21 5.41C112.9 5.18 112.66 4.88 112.51 4.53C112.33 4.11 112.25 3.66 112.27 3.21C112.26 2.76 112.36 2.31 112.57 1.91C112.76 1.51 113.04 1.17 113.39 0.9C113.75 0.64 114.14 0.44 114.57 0.32C115.79 -0.02 117.1 0.06 118.27 0.55C118.92 0.86 119.5 1.28 119.99 1.8C119.83 1.95 118.59 3.14 118.44 3.29C118.12 2.95 117.74 2.67 117.32 2.47C116.9 2.28 116.45 2.18 115.99 2.19C115.75 2.18 115.5 2.21 115.27 2.28C115.1 2.32 114.94 2.39 114.79 2.5C114.68 2.57 114.59 2.68 114.53 2.8C114.48 2.91 114.46 3.03 114.46 3.15C114.45 3.3 114.49 3.45 114.56 3.58C114.64 3.71 114.76 3.82 114.9 3.89C115.12 3.99 115.35 4.06 115.58 4.12C115.69 4.15 116.5 4.36 116.6 4.39C117.04 4.49 117.46 4.61 117.89 4.74C118.3 4.87 118.68 5.07 119.04 5.31C119.38 5.56 119.67 5.87 119.88 6.24C120.11 6.67 120.22 7.16 120.2 7.66C120.23 8.14 120.17 8.62 120.01 9.07C119.85 9.48 119.59 9.85 119.25 10.13Z" id="b1uXIyNmGH"></path><path d="M127.28 0.15L127.6 0.2L127.92 0.27L128.23 0.37L128.53 0.48L128.82 0.62L129.08 0.77L129.34 0.94L129.58 1.13L129.81 1.34L130.03 1.57L130.24 1.82L130.44 2.09L130.62 2.37L130.78 2.67L130.92 2.97L131.04 3.28L131.15 3.65L131.24 4.03L131.31 4.41L131.35 4.8L131.38 5.19L131.39 5.57L131.37 5.97L131.34 6.35L131.29 6.74L131.21 7.13L131.12 7.5L131 7.88L130.88 8.19L130.74 8.5L130.58 8.79L130.4 9.08L130.2 9.35L129.99 9.6L129.77 9.83L129.54 10.04L129.3 10.23L129.04 10.4L128.77 10.56L128.48 10.69L128.18 10.81L127.86 10.9L127.54 10.98L127.22 11.03L126.89 11.06L126.57 11.07L126.24 11.06L125.91 11.03L125.58 10.98L125.26 10.91L124.95 10.81L124.64 10.69L124.36 10.56L124.09 10.41L123.83 10.24L123.59 10.05L123.36 9.85L123.15 9.62L122.93 9.37L122.73 9.1L122.55 8.82L122.39 8.52L122.25 8.22L122.13 7.91L122.02 7.53L121.93 7.15L121.87 6.77L121.82 6.38L121.79 5.99L121.79 5.6L121.79 5.21L121.82 4.83L121.87 4.44L121.93 4.05L122.02 3.67L122.13 3.3L122.25 2.99L122.39 2.68L122.55 2.39L122.73 2.1L122.93 1.83L123.15 1.58L123.37 1.35L123.61 1.14L123.87 0.95L124.14 0.77L124.42 0.62L124.72 0.49L125.02 0.38L125.34 0.28L125.65 0.21L125.97 0.15L126.3 0.12L126.63 0.11L126.95 0.12L127.28 0.15ZM125.53 2.45L125.09 2.73L124.72 3.12L124.39 3.69L124.16 4.3L124.04 4.95L124.03 5.6L124.04 6.27L124.17 6.92L124.4 7.54L124.74 8.11L125.45 8.7L126.31 8.97L127.21 8.89L128.03 8.47L128.13 8.39L128.23 8.3L128.32 8.21L128.4 8.11L128.73 7.53L128.96 6.92L129.08 6.27L129.09 5.61L129.08 4.96L128.97 4.31L128.74 3.7L128.42 3.12L128.05 2.74L127.61 2.46L127.11 2.29L126.58 2.24L126.04 2.28L125.53 2.45Z" id="d3yHIbHCDd"></path><path d="M133.51 10.91L133.51 0.28L135.65 0.28L135.65 8.82L141.04 8.82L141.04 10.91L133.51 10.91Z" id="c4V7ZAzmI3"></path><path d="M143.04 10.91L143.04 0.28L150.5 0.28L150.5 2.36L145.18 2.36L145.18 4.18L148.22 4.18L148.22 6.26L145.18 6.26L145.18 8.82L150.72 8.82L150.72 10.91L143.04 10.91Z" id="hV5QIKJP5"></path><path d="M65.28 10.62L65.28 0L72.74 0L72.74 2.07L67.42 2.07L67.42 3.9L70.46 3.9L70.46 5.97L67.42 5.97L67.42 8.54L72.96 8.54L72.96 10.62L65.28 10.62Z" id="fuR1Ba1J"></path><path d="M62.55 10.02C62.16 10.34 61.71 10.57 61.23 10.71C60.61 10.88 59.97 10.97 59.33 10.95C58.48 10.96 57.65 10.79 56.87 10.44C56.18 10.13 55.58 9.64 55.15 9.02C55.31 8.88 56.55 7.79 56.7 7.66C57.05 8.06 57.48 8.38 57.97 8.59C58.44 8.78 58.94 8.87 59.45 8.87C59.94 8.9 60.43 8.81 60.87 8.6C61.17 8.4 61.35 8.07 61.33 7.72C61.33 7.56 61.3 7.41 61.24 7.27C61.16 7.12 61.04 7 60.89 6.91C60.67 6.77 60.42 6.67 60.16 6.59C59.85 6.49 59.43 6.38 58.94 6.27C58.47 6.17 58.02 6.04 57.58 5.88C57.19 5.74 56.83 5.55 56.51 5.3C56.2 5.07 55.96 4.77 55.81 4.42C55.63 4 55.55 3.55 55.57 3.1C55.56 2.64 55.66 2.2 55.87 1.79C56.06 1.4 56.34 1.06 56.69 0.79C57.05 0.53 57.44 0.33 57.87 0.21C59.09 -0.13 60.4 -0.05 61.57 0.44C62.22 0.75 62.8 1.17 63.29 1.68C63.13 1.83 61.89 3.03 61.74 3.18C61.42 2.84 61.04 2.56 60.62 2.35C60.2 2.17 59.75 2.07 59.29 2.07C59.05 2.07 58.8 2.1 58.57 2.16C58.4 2.21 58.24 2.28 58.09 2.38C57.98 2.46 57.89 2.57 57.83 2.69C57.78 2.8 57.76 2.92 57.76 3.04C57.75 3.19 57.79 3.34 57.86 3.47C57.94 3.6 58.06 3.71 58.2 3.78C58.42 3.87 58.65 3.95 58.88 4.01C58.99 4.04 59.8 4.25 59.9 4.28C60.34 4.38 60.76 4.5 61.19 4.63C61.6 4.76 61.98 4.95 62.33 5.2C62.68 5.44 62.97 5.76 63.18 6.12C63.41 6.56 63.52 7.05 63.5 7.55C63.53 8.02 63.47 8.51 63.31 8.96C63.15 9.37 62.89 9.73 62.55 10.02Z" id="c1dklghQTa"></path><path d="M51.84 10.02C51.45 10.34 51 10.57 50.52 10.71C49.9 10.88 49.26 10.97 48.62 10.95C47.77 10.96 46.94 10.79 46.17 10.44C45.47 10.13 44.87 9.64 44.44 9.02C44.6 8.88 45.84 7.79 45.99 7.66C46.34 8.06 46.77 8.38 47.26 8.59C47.73 8.78 48.24 8.87 48.74 8.87C49.23 8.9 49.72 8.81 50.16 8.6C50.46 8.4 50.64 8.07 50.62 7.72C50.62 7.56 50.59 7.41 50.53 7.27C50.45 7.12 50.33 7 50.18 6.91C49.96 6.77 49.71 6.67 49.45 6.59C49.14 6.49 48.72 6.38 48.23 6.27C47.76 6.17 47.31 6.04 46.87 5.88C46.48 5.74 46.12 5.55 45.8 5.3C45.49 5.07 45.25 4.77 45.1 4.42C44.92 4 44.84 3.55 44.86 3.1C44.85 2.64 44.95 2.2 45.16 1.79C45.35 1.4 45.63 1.06 45.98 0.79C46.34 0.53 46.74 0.33 47.16 0.21C48.38 -0.13 49.69 -0.05 50.86 0.44C51.51 0.75 52.09 1.17 52.58 1.68C52.42 1.83 51.18 3.03 51.03 3.18C50.71 2.84 50.33 2.56 49.91 2.35C49.49 2.17 49.04 2.07 48.58 2.07C48.34 2.07 48.09 2.1 47.86 2.16C47.69 2.21 47.53 2.28 47.38 2.38C47.27 2.46 47.18 2.57 47.12 2.69C47.07 2.8 47.05 2.92 47.05 3.04C47.04 3.19 47.08 3.34 47.15 3.47C47.23 3.6 47.35 3.71 47.49 3.78C47.71 3.87 47.94 3.95 48.17 4.01C48.28 4.04 49.09 4.25 49.19 4.28C49.63 4.38 50.05 4.5 50.48 4.63C50.89 4.76 51.27 4.95 51.63 5.2C51.97 5.44 52.26 5.76 52.47 6.12C52.7 6.56 52.81 7.05 52.79 7.55C52.82 8.02 52.76 8.51 52.6 8.96C52.44 9.37 52.18 9.73 51.84 10.02Z" id="fimcx3f5o"></path><path d="M16.36 10.62L12.42 4.84C12.16 4.46 12.02 4.24 11.99 4.2C11.85 3.97 11.74 3.79 11.66 3.65C11.66 3.75 11.66 3.9 11.66 4.09C11.66 4.15 11.66 4.67 11.66 4.74C11.66 4.96 11.66 5.18 11.66 5.4C11.66 5.62 11.66 5.81 11.66 5.96C11.66 6.27 11.66 7.83 11.66 10.64L9.52 10.64L9.52 0L11.55 0L15.35 5.61C15.6 6 15.75 6.21 15.77 6.25C15.92 6.48 16.03 6.67 16.1 6.81C16.1 6.71 16.1 6.56 16.1 6.36C16.1 6.3 16.1 5.8 16.1 5.73C16.1 5.5 16.1 5.27 16.1 5.05C16.1 4.83 16.1 4.64 16.1 4.49C16.1 4.19 16.1 2.69 16.1 0L18.24 0L18.24 10.62L16.36 10.62Z" id="g2M6RXzWLx"></path><path d="M0 10.62L0 0L7.46 0L7.46 2.07L2.14 2.07L2.14 3.9L5.19 3.9L5.19 5.97L2.14 5.97L2.14 8.54L7.68 8.54L7.68 10.62L0 10.62Z" id="a2g8zlOCO2"></path></defs><g><g><g><use xlink:href="#c1LJIhB79t" opacity="1" fill="#ffffff" fill-opacity="1"></use><g><use xlink:href="#c1LJIhB79t" opacity="1" fill-opacity="0" stroke="#000000" stroke-width="1" stroke-opacity="0"></use></g></g><g><use xlink:href="#a1uWe8g72k" opacity="1" fill="#ffffff" fill-opacity="1"></use><g><use xlink:href="#a1uWe8g72k" opacity="1" fill-opacity="0" stroke="#000000" stroke-width="1" stroke-opacity="0"></use></g></g><g><use xlink:href="#bkQXshUhr" opacity="1" fill="#ffffff" fill-opacity="1"></use><g><use xlink:href="#bkQXshUhr" opacity="1" fill-opacity="0" stroke="#000000" stroke-width="1" stroke-opacity="0"></use></g></g><g><use xlink:href="#b3LCWQwqVm" opacity="1" fill="#ffffff" fill-opacity="1"></use><g><use xlink:href="#b3LCWQwqVm" opacity="1" fill-opacity="0" stroke="#000000" stroke-width="1" stroke-opacity="0"></use></g></g><g><use xlink:href="#aeWzgUHKg" opacity="1" fill="#ffffff" fill-opacity="1"></use><g><use xlink:href="#aeWzgUHKg" opacity="1" fill-opacity="0" stroke="#000000" stroke-width="1" stroke-opacity="0"></use></g></g><g><use xlink:href="#b7OW2UFBii" opacity="1" fill="#ffffff" fill-opacity="1"></use><g><use xlink:href="#b7OW2UFBii" opacity="1" fill-opacity="0" stroke="#000000" stroke-width="1" stroke-opacity="0"></use></g></g><g><use xlink:href="#b1uXIyNmGH" opacity="1" fill="#ffffff" fill-opacity="1"></use><g><use xlink:href="#b1uXIyNmGH" opacity="1" fill-opacity="0" stroke="#000000" stroke-width="1" stroke-opacity="0"></use></g></g><g><use xlink:href="#d3yHIbHCDd" opacity="1" fill="#ffffff" fill-opacity="1"></use><g><use xlink:href="#d3yHIbHCDd" opacity="1" fill-opacity="0" stroke="#000000" stroke-width="1" stroke-opacity="0"></use></g></g><g><use xlink:href="#c4V7ZAzmI3" opacity="1" fill="#ffffff" fill-opacity="1"></use><g><use xlink:href="#c4V7ZAzmI3" opacity="1" fill-opacity="0" stroke="#000000" stroke-width="1" stroke-opacity="0"></use></g></g><g><use xlink:href="#hV5QIKJP5" opacity="1" fill="#ffffff" fill-opacity="1"></use><g><use xlink:href="#hV5QIKJP5" opacity="1" fill-opacity="0" stroke="#000000" stroke-width="1" stroke-opacity="0"></use></g></g><g><use xlink:href="#fuR1Ba1J" opacity="1" fill="#ffffff" fill-opacity="1"></use><g><use xlink:href="#fuR1Ba1J" opacity="1" fill-opacity="0" stroke="#000000" stroke-width="1" stroke-opacity="0"></use></g></g><g><use xlink:href="#c1dklghQTa" opacity="1" fill="#ffffff" fill-opacity="1"></use><g><use xlink:href="#c1dklghQTa" opacity="1" fill-opacity="0" stroke="#000000" stroke-width="1" stroke-opacity="0"></use></g></g><g><use xlink:href="#fimcx3f5o" opacity="1" fill="#ffffff" fill-opacity="1"></use><g><use xlink:href="#fimcx3f5o" opacity="1" fill-opacity="0" stroke="#000000" stroke-width="1" stroke-opacity="0"></use></g></g><g><use xlink:href="#g2M6RXzWLx" opacity="1" fill="#ffffff" fill-opacity="1"></use><g><use xlink:href="#g2M6RXzWLx" opacity="1" fill-opacity="0" stroke="#000000" stroke-width="1" stroke-opacity="0"></use></g></g><g><use xlink:href="#a2g8zlOCO2" opacity="1" fill="#ffffff" fill-opacity="1"></use><g><use xlink:href="#a2g8zlOCO2" opacity="1" fill-opacity="0" stroke="#000000" stroke-width="1" stroke-opacity="0"></use></g></g></g></g></svg>